<svg xmlns="http://www.w3.org/2000/svg" viewBox="0 0 44.82 109.02"><defs><style>.cls-1{fill:#00b46a;}</style></defs><title>자산 3</title><g id="레이어_2" data-name="레이어 2"><g id="Grid"><rect class="cls-1" x="0.41" width="12.68" height="21.36"/><rect class="cls-1" x="16.07" width="12.68" height="21.36"/><rect class="cls-1" x="31.73" width="12.68" height="21.36"/><rect class="cls-1" x="0.41" y="24.03" width="12.68" height="27.59"/><rect class="cls-1" x="16.07" y="24.03" width="12.68" height="27.59"/><polygon class="cls-1" points="44.41 24.03 31.73 24.03 31.73 51.63 35.12 51.63 44.41 41.74 44.41 24.03"/><path class="cls-1" d="M6.59,61.26a7.18,7.18,0,0,1,2.51.42A6.36,6.36,0,0,1,11,62.88a5.64,5.64,0,0,1,1.2,1.84,6.67,6.67,0,0,1,0,4.66,5.29,5.29,0,0,1-3.09,3,7.18,7.18,0,0,1-2.51.42,7,7,0,0,1-2.52-.42,5.14,5.14,0,0,1-1.88-1.2A4.82,4.82,0,0,1,1,69.38a6.67,6.67,0,0,1,0-4.66,5,5,0,0,1,1.18-1.84,6.06,6.06,0,0,1,1.88-1.2A7,7,0,0,1,6.59,61.26ZM2,82.76V81H6.23l-.44-3.5L8,77.51,8.4,81h5.71l.48-3.44,2.16-.06L16.28,81h4.26v1.81Zm.24-6.25V74.69h18v1.82ZM6.59,63.07a3.89,3.89,0,0,0-2.78,1,3.86,3.86,0,0,0-1.08,2.94A3.75,3.75,0,0,0,3.81,70a3.8,3.8,0,0,0,2.78,1,4.28,4.28,0,0,0,1.57-.26A3.24,3.24,0,0,0,9.39,70a3.79,3.79,0,0,0,.8-1.25,4.71,4.71,0,0,0,.28-1.67,4,4,0,0,0-1.08-2.94A4,4,0,0,0,6.59,63.07Zm11.1.83V61.19h2.14V73.75H17.69V70.2H13.46V68.37h4.23V65.73H13.46V63.9Z"/><path class="cls-1" d="M35.57,61.5v1.83h-4.7v.85a4.7,4.7,0,0,0,.47,2.19,5.59,5.59,0,0,0,1.22,1.74,6,6,0,0,0,1.67,1.27,8.6,8.6,0,0,0,1.91.8l-1,1.6a6.41,6.41,0,0,1-1.44-.52,8,8,0,0,1-1.46-.87,8.25,8.25,0,0,1-1.34-1.2,6.61,6.61,0,0,1-1.08-1.53,7.81,7.81,0,0,1-2.28,2.85,13.19,13.19,0,0,1-3.37,1.93l-1-1.51a13.55,13.55,0,0,0,2.21-1.15,9.3,9.3,0,0,0,1.77-1.46,6.27,6.27,0,0,0,1.15-1.81,6.08,6.08,0,0,0,.4-2.24v-.94H24V61.5ZM25.08,82.76v-9h2.16v2.71H40.75V73.75h2.14v9Zm15.67-4.54H27.24V81H40.75Zm2.14-5.64H40.75V61.19h2.14Z"/><path class="cls-1" d="M10.75,90.68v1.83h-4a5,5,0,0,0,.47,2.16,5.75,5.75,0,0,0,1.08,1.7,5.68,5.68,0,0,0,1.42,1.24,6.78,6.78,0,0,0,1.48.8L10.09,100a5.16,5.16,0,0,1-1.15-.61,5.84,5.84,0,0,1-1.22-.92,6.47,6.47,0,0,1-1.13-1.15A5,5,0,0,1,5.74,96,5.51,5.51,0,0,1,5,97.31a8.65,8.65,0,0,1-1.13,1.2,9.85,9.85,0,0,1-1.29,1,11,11,0,0,1-1.34.75L0,98.77a10.84,10.84,0,0,0,1.76-1,6.65,6.65,0,0,0,1.49-1.36,6.09,6.09,0,0,0,1-1.72,7,7,0,0,0,.4-2.14h-4V90.68ZM18.18,109v-5.66H2v-1.79H20.33V109ZM9.06,87.43v1.83H2.59V87.43Zm6.11,5.15h3.09V87.36h2.07v13H18.26v-6H15.17v5.77H13.1V87.52h2.07Z"/><path class="cls-1" d="M35.41,87.66V98.74H23.9V87.66H26v4h7.22v-4Zm-6.17,21.27a5.61,5.61,0,0,1-3.67-1,3.77,3.77,0,0,1-1.2-3.08,3.73,3.73,0,0,1,1.2-3.06,5.94,5.94,0,0,1,3.67-.94h7.6a6.08,6.08,0,0,1,3.69.94,3.78,3.78,0,0,1,1.18,3.06,3.82,3.82,0,0,1-1.18,3.08,5.75,5.75,0,0,1-3.69,1Zm4-12V93.45H26V97Zm-6.75,7.88a2.23,2.23,0,0,0,.62,1.77,3.21,3.21,0,0,0,2.11.54h7.6a3.35,3.35,0,0,0,2.12-.54,2.34,2.34,0,0,0,.61-1.77,2.19,2.19,0,0,0-.61-1.72,3.51,3.51,0,0,0-2.12-.51h-7.6a3.35,3.35,0,0,0-2.11.51A2.09,2.09,0,0,0,26.51,104.86ZM41.24,92.11h3.58v1.81H41.24v5.77H39.1V87.36h2.14Z"/></g></g></svg>